<svg width="2032" height="962" viewBox="0 0 2032 962" fill="none" xmlns="http://www.w3.org/2000/svg">
<path fill-rule="evenodd" clip-rule="evenodd" d="M1016.03 0C891.391 0 790 101.402 790 226.035C790 282.149 810.766 335.896 848.498 377.551L824.369 457.709L816.766 484.302L906.518 423.646C939.929 442.254 977.769 452.064 1016.03 452.064C1140.69 452.064 1242.07 350.667 1242.07 226.045C1242.06 101.402 1140.66 0 1016.03 0ZM1015.12 264.225C1010.51 291.061 987.173 311.508 959.014 311.508C927.52 311.508 902 285.979 902 254.504C902 223.03 927.52 197.51 959.014 197.51C962.887 197.51 966.659 197.903 970.31 198.647C962.937 189.031 958.501 177.05 958.501 163.994C958.501 132.52 984.021 107 1015.49 107C1046.99 107 1072.51 132.52 1072.51 163.994C1072.51 177.05 1068.06 189.031 1060.7 198.647C1064.35 197.903 1068.12 197.51 1072.02 197.51C1103.48 197.51 1129 223.03 1129 254.504C1129 285.979 1103.5 311.508 1072.03 311.508C1042.97 311.508 1019.04 289.761 1015.49 261.686C1015.49 261.743 1015.48 261.799 1015.47 261.856C1016.55 304.011 1034.96 336.445 1060.73 336.445H1059.08H970.3C995.577 336.445 1012.48 305.22 1015.12 264.225Z" fill="white"/>
<path d="M220.001 858.912H167.074V722.645H52.9266V858.912H0V577.689H52.9266V670.904H167.074V577.689H220.001V858.912ZM406.824 858.912H353.503V719.88L251.994 577.689H316.77L380.361 666.559L443.952 577.689H508.333L406.824 719.88V858.912ZM596.807 858.912H544.275V577.689H644.994C664.348 577.689 682.517 585.194 696.341 599.018C709.77 612.842 717.669 630.616 717.669 649.97C717.669 689.862 684.886 721.855 644.994 721.855H596.807V858.912ZM596.807 670.114H644.994C656.053 670.114 664.743 661.029 664.743 649.97C664.743 638.911 655.658 629.431 644.994 629.431H596.807V670.114ZM992.967 858.912H930.561L830.632 721.46H808.119V858.912H756.772V577.689H857.49C876.449 577.689 894.223 585.194 908.047 599.018C921.871 612.842 929.376 630.616 929.376 649.575C929.376 677.618 912.787 702.896 888.299 714.746L992.967 858.912ZM808.119 670.114H857.49C868.55 670.114 878.029 661.029 878.029 649.575C878.029 638.121 868.55 629.036 857.49 629.036H808.119V670.114ZM1020.22 962C991.387 962 964.134 951.336 944.385 931.982L935.301 922.503L979.538 890.51L985.462 896.434C995.337 904.729 1007.98 909.468 1020.22 909.468C1050.24 909.468 1075.52 883.795 1075.52 853.382V630.616H1006V577.294H1129.23V853.382C1129.23 882.61 1117.78 910.258 1097.24 930.797C1087.37 941.066 1075.12 948.571 1062.09 954.101C1049.05 959.235 1034.83 962 1020.22 962ZM1426.25 858.912H1369.38L1340.54 783.076H1247.33L1218.1 858.912H1161.62L1269.84 577.689H1317.64L1426.25 858.912ZM1267.87 730.94H1320.01L1293.94 662.609L1267.87 730.94ZM1594.91 863.256C1575.16 863.256 1555.81 859.307 1537.64 851.802C1520.26 844.297 1504.46 833.633 1491.03 820.204C1477.21 806.775 1466.54 790.976 1459.43 773.202C1451.53 755.033 1447.58 736.074 1447.58 715.931C1447.58 634.961 1513.94 569 1594.91 569C1617.82 569 1640.73 574.53 1660.87 584.799C1681.01 594.673 1699.18 610.077 1712.61 628.246L1718.93 636.146L1676.67 667.349L1670.74 659.449C1652.97 635.356 1625.32 621.532 1594.91 621.532C1542.77 621.532 1500.11 663.794 1500.11 715.931C1500.11 768.462 1542.77 811.12 1594.91 811.12C1624.93 811.12 1652.57 797.295 1670.74 773.202L1676.67 765.697L1718.54 796.506L1712.22 804.405C1698.39 822.969 1681.01 837.583 1660.47 847.852C1640.33 858.122 1617.82 863.256 1594.91 863.256ZM2031.36 858.912H1965.4L1860.73 711.981L1815.7 754.638V858.912H1763.17V577.689H1815.7V683.148L1927.87 577.689H2003.71L1900.62 675.248L2031.36 858.912Z" fill="white"/>
</svg>
