<svg width="1883" height="866" viewBox="0 0 1883 866" fill="none" xmlns="http://www.w3.org/2000/svg">
<path d="M9.32317 865.09H0V563.52H9.32317V865.09ZM23.7247 865.09H14.4016V563.52H23.7247V865.09ZM38.0875 865.09H28.7643V563.52H38.0875V865.09ZM52.4481 865.09H43.1249V563.52H52.4481V865.09ZM183.248 696.185V563.522H192.571V865.136H183.248V763.078H66.8431V865.096H57.52V563.525H66.8431V696.188L183.248 696.185ZM183.248 705.516H66.8431V710.597H183.248V705.516ZM66.8475 724.965H183.252V719.884H66.8475V724.965ZM183.248 734.296H66.8431V739.377H183.248V734.296ZM66.8475 753.746H183.252V748.665H66.8475V753.746ZM206.934 865.09H197.611V563.52H206.934V865.09ZM221.338 865.09H212.015V563.52H221.338V865.09ZM235.699 865.09H226.375V563.52H235.699V865.09ZM250.102 865.09H240.779V563.52H250.102V865.09ZM260.905 563.522H271.696L367.192 727.381V865.082H357.869V729.917L260.905 563.522ZM277.569 563.522H288.32L383.816 727.381V865.082H374.492V729.917L277.569 563.522ZM304.983 563.522L400.436 727.349L401.785 865.092H392.461L391.152 729.927L294.19 563.522H304.983ZM321.647 563.522L417.099 727.381L417.813 865.092H408.53L407.816 729.927L310.854 563.522H321.647ZM519.741 563.522L530.532 563.522L433.768 729.927V865.092H424.445V729.927L327.522 563.522H338.273L395.681 662.049L453.166 563.522H463.918L401.236 671.019L400.76 670.742L404.013 676.299L469.792 563.529H480.582L409.409 685.555L412.305 690.596L486.454 563.533H497.245L417.701 699.852L420.637 704.894L503.118 563.537H513.909L426.033 714.149L429.128 719.389L519.741 563.522ZM550.972 865.09H541.649V563.002H550.972V865.09ZM565.373 865.09H556.05V563.002H565.373V865.09ZM579.736 865.09H570.413V563.002H579.736V865.09ZM594.135 865.09H584.812V563.002H594.135V865.09ZM636.549 563.004C690.149 563.004 733.709 606.628 733.787 660.258C733.787 713.889 690.187 757.513 636.588 757.513H608.538V865.088H599.215V563L636.549 563.004ZM608.5 628.181V692.172H636.55C654.165 692.172 668.527 677.842 668.527 660.176C668.527 642.511 654.165 628.181 636.55 628.181H608.5ZM608.5 701.46L608.501 706.144H636.55C661.861 706.144 682.491 685.543 682.491 660.177C682.491 634.812 661.901 614.21 636.55 614.21H608.501V618.815H636.55C659.322 618.815 677.85 637.353 677.85 660.138C677.85 682.923 659.322 701.461 636.55 701.461L608.5 701.46ZM608.5 715.483V720.127H636.55C669.597 720.127 696.455 693.253 696.455 660.188C696.455 627.123 669.596 600.249 636.55 600.249H608.5V604.894H636.55C667.019 604.894 691.814 629.704 691.814 660.19C691.814 690.676 667.019 715.485 636.55 715.485L608.5 715.483ZM608.5 729.453V734.097H636.55C677.294 734.097 710.462 700.951 710.462 660.182C710.462 619.414 677.294 586.229 636.55 586.229H608.5V590.913H636.55C674.715 590.913 705.778 621.994 705.778 660.18C705.778 698.367 674.714 729.448 636.55 729.448L608.5 729.453ZM636.549 748.19C684.991 748.19 724.424 708.733 724.424 660.265C724.424 611.796 684.989 572.34 636.549 572.34H608.499V576.945H636.549C682.451 576.945 719.784 614.298 719.784 660.188C719.784 706.078 682.452 743.432 636.549 743.432H608.499V748.195L636.549 748.19ZM825.569 710.391L834.02 706.501L907.496 865.086H897.221L825.569 710.391ZM838.701 704.566L847.152 700.676L923.323 865.096H913.048L838.701 704.566ZM851.281 697.727L859.771 693.797L939.198 865.078H928.923L851.281 697.727ZM764.871 865.09H755.548V563.682H764.871V865.09ZM779.233 865.09H769.91V563.682H779.233V865.09ZM793.635 865.09H784.312V563.682H793.635V865.09ZM807.996 865.09H798.673V563.682H807.996V865.09ZM899.326 744.889L955.069 865.125H944.794L863.939 690.618L868.7 687.125C877.23 681.131 882.427 671.286 882.427 660.846C882.427 643.182 868.065 628.851 850.45 628.851H822.4V715.546L891.671 865.08H881.396L822.401 737.736V865.08H813.078V563.672H850.41C904.01 563.672 947.609 607.296 947.609 660.926C947.609 695.58 929.161 727.422 899.326 744.889ZM875.564 693.52L877.548 697.887C889.252 689.273 896.352 675.459 896.352 660.851C896.352 635.485 875.722 614.884 850.411 614.884H822.362V619.528H850.411C873.183 619.528 891.711 638.066 891.711 660.851C891.711 673.673 885.681 685.7 875.564 693.52ZM881.548 706.508L883.491 710.794C900.155 699.719 910.311 680.942 910.311 660.858C910.311 627.791 883.452 600.919 850.406 600.919H822.356V605.563H850.406C880.875 605.563 905.67 630.373 905.67 660.859C905.67 679.04 896.505 696.264 881.548 706.508ZM887.499 719.291L889.483 723.539C911.105 710.042 924.356 686.384 924.356 660.822C924.356 620.093 891.188 586.907 850.444 586.907H822.395V591.552H850.444C888.61 591.552 919.673 622.633 919.673 660.819C919.673 684.558 907.415 706.588 887.499 719.291ZM893.418 732.074L895.442 736.401C921.944 720.522 938.328 691.94 938.328 660.937C938.328 612.468 898.893 573.012 850.452 573.012H822.403V577.617H850.452C896.316 577.617 933.649 614.97 933.649 660.86C933.649 690.037 918.293 716.989 893.418 732.074ZM1053.94 790.382C1053.94 800.028 1046.09 807.887 1036.45 807.887H976.777V798.559H1036.45C1040.93 798.559 1044.62 794.907 1044.62 790.382V563.675H1053.94V790.382ZM1068.22 789.471C1068.22 807.652 1053.47 822.459 1035.3 822.419H976.777V813.09H1035.3C1048.31 813.09 1058.9 802.491 1058.9 789.472V563.682H1068.22L1068.22 789.471ZM1082.54 793.838C1082.54 817.338 1063.42 836.471 1039.93 836.471H976.773V827.143H1039.93C1058.3 827.143 1073.22 812.178 1073.22 793.838V563.68H1082.54L1082.54 793.838ZM1096.83 796.297C1096.83 826.149 1072.55 850.441 1042.71 850.441H976.816V841.113H1042.71C1067.39 841.113 1087.5 821.027 1087.5 796.298V563.68H1096.83L1096.83 796.297ZM1101.79 563.684L1111.11 563.683V799.397C1111.11 835.639 1081.67 865.092 1045.45 865.092H976.817V855.764H1045.45C1076.52 855.764 1101.79 830.477 1101.79 799.398V563.684ZM1258.62 563.403H1268.74L1143.01 865.092H1132.89L1258.62 563.403ZM1273.01 563.403H1283.13L1157.4 865.092H1147.32L1273.01 563.403ZM1287.46 563.403H1297.54L1171.81 865.092H1161.73L1287.46 563.403ZM1301.85 563.403H1311.97L1186.21 865.092H1176.13L1301.85 563.403ZM1442.51 865.09L1322.37 572.97L1319.79 579.202L1437.35 865.087H1427.27L1314.72 591.348L1312.14 597.58L1422.15 865.127H1412.07L1307.06 609.77L1304.48 615.963L1406.92 865.128H1396.84L1299.4 628.141L1296.82 634.334L1391.72 865.086H1381.65L1359.03 809.988H1223.66L1200.69 865.086H1190.58L1316.31 563.397H1328.53L1452.59 865.086L1442.51 865.09ZM1355.13 800.664L1353.15 795.821H1229.53L1227.51 800.664H1355.13ZM1349.31 786.494L1347.29 781.651H1235.41L1233.39 786.494H1349.31ZM1343.47 772.319L1341.45 767.476H1241.31L1239.29 772.319H1343.47ZM1337.65 758.149L1335.66 753.306H1247.23L1245.21 758.149H1337.65ZM1331.81 743.983L1291.74 646.531L1251.12 743.983H1331.81ZM1485.43 714.447C1485.43 661.253 1528.71 617.948 1581.87 617.948H1600.48V627.277H1581.87C1533.83 627.277 1494.75 666.377 1494.75 714.447C1494.75 762.518 1533.83 801.617 1581.87 801.617H1600.48V810.946H1581.87C1528.71 810.946 1485.43 767.638 1485.43 714.447ZM1471.9 714.447C1471.9 653.793 1521.25 604.406 1581.87 604.406H1600.48V613.734H1581.87C1526.37 613.734 1481.21 658.907 1481.21 714.445C1481.21 769.982 1526.36 815.155 1581.87 815.155H1600.48V824.484H1581.87C1521.21 824.484 1471.9 775.098 1471.9 714.447ZM1458.37 714.447C1458.37 646.328 1513.8 590.879 1581.87 590.879H1600.48V600.207H1581.87C1518.91 600.207 1467.69 651.456 1467.69 714.456C1467.69 777.456 1518.91 828.704 1581.87 828.704H1600.48V838.033H1581.87C1513.75 838.033 1458.37 782.572 1458.37 714.447ZM1444.84 714.447C1444.84 638.828 1506.33 577.341 1581.87 577.341H1600.48V586.669H1581.87C1511.45 586.669 1454.16 643.989 1454.16 714.456C1454.16 784.923 1511.44 842.242 1581.87 842.242H1600.48V851.571H1581.87C1506.33 851.571 1444.84 790.083 1444.84 714.464V714.447ZM1581.87 563.803L1600.48 563.803V573.132H1581.87C1504 573.132 1440.64 636.527 1440.64 714.446C1440.64 792.365 1504 855.76 1581.87 855.76H1600.48V865.088H1581.87C1498.88 865.088 1431.31 797.486 1431.31 714.443C1431.31 631.4 1498.84 563.803 1581.87 563.803ZM1631.68 865.09H1622.36V563.962H1631.68V865.09ZM1646.08 865.09H1636.76V563.962H1646.08V865.09ZM1660.45 865.09H1651.12V563.962H1660.45V865.09ZM1674.85 865.09H1665.52V563.962H1674.85V865.09ZM1882.06 563.954L1763.4 723.013L1877.38 865.082H1865.43L1720.43 684.383L1717.29 688.551L1858.93 865.075H1846.98L1711.54 696.286L1708.44 700.454L1840.47 865.068H1828.53L1702.65 708.156L1699.55 712.364L1822.06 865.069H1810.12L1693.76 720.098L1690.66 724.266L1803.61 865.062H1791.66L1689.19 737.319V865.062H1679.86V563.934H1689.19V710.652L1798.65 563.934H1810.27L1726.16 676.629L1729.46 680.718L1816.58 563.934H1828.2L1735.48 688.226L1738.74 692.314L1834.51 563.935H1846.17L1744.77 699.812L1748.02 703.861L1852.48 563.927H1864.11L1754.05 711.401L1757.35 715.49L1870.42 563.928H1882.04L1882.06 563.954Z" fill="white"/>
<path fill-rule="evenodd" clip-rule="evenodd" d="M940.492 0C816.702 0 716 100.713 716 224.497C716 280.23 736.625 333.612 774.1 374.984L750.136 454.596L742.584 481.009L831.725 420.765C864.91 439.246 902.492 448.989 940.497 448.989C1064.3 448.989 1165 348.282 1165 224.508C1164.98 100.713 1064.27 0 940.492 0ZM939.587 262.428C935.009 289.082 911.832 309.39 883.865 309.39C852.584 309.39 827.238 284.034 827.238 252.774C827.238 221.513 852.584 196.167 883.865 196.167C887.711 196.167 891.458 196.557 895.084 197.296C887.761 187.745 883.355 175.846 883.355 162.879C883.355 131.618 908.701 106.272 939.962 106.272C971.242 106.272 996.588 131.618 996.588 162.879C996.588 175.846 992.172 187.745 984.859 197.296C988.486 196.557 992.232 196.167 996.098 196.167C1027.35 196.167 1052.69 221.513 1052.69 252.774C1052.69 284.034 1027.37 309.39 996.108 309.39C967.246 309.39 943.478 287.79 939.962 259.907C939.955 259.963 939.947 260.019 939.94 260.075C941.013 301.943 959.293 334.156 984.889 334.156H983.25H895.074C920.179 334.156 936.97 303.144 939.587 262.428Z" fill="#272F51"/>
</svg>
